<mxfile host="Electron" agent="Mozilla/5.0 (Windows NT 10.0; Win64; x64) AppleWebKit/537.36 (KHTML, like Gecko) draw.io/28.1.2 Chrome/138.0.7204.243 Electron/37.4.0 Safari/537.36" version="28.1.2">
  <diagram name="Page-1" id="3zXm4w0xC150l0Pxd0Lg">
    <mxGraphModel dx="2319" dy="873" grid="1" gridSize="10" guides="1" tooltips="1" connect="1" arrows="1" fold="1" page="1" pageScale="1" pageWidth="850" pageHeight="1100" math="0" shadow="0">
      <root>
        <mxCell id="0" />
        <mxCell id="1" parent="0" />
        <mxCell id="CKRff9_2Nqjq3r9Cj2ci-2" value="Client" style="rounded=0;whiteSpace=wrap;html=1;" vertex="1" parent="1">
          <mxGeometry x="-650" y="360" width="120" height="60" as="geometry" />
        </mxCell>
        <mxCell id="CKRff9_2Nqjq3r9Cj2ci-12" value="5.1" style="swimlane;whiteSpace=wrap;html=1;" vertex="1" parent="1">
          <mxGeometry x="-30" y="580" width="130" height="80" as="geometry" />
        </mxCell>
        <mxCell id="CKRff9_2Nqjq3r9Cj2ci-13" value="Check out" style="rounded=0;whiteSpace=wrap;html=1;" vertex="1" parent="CKRff9_2Nqjq3r9Cj2ci-12">
          <mxGeometry y="20" width="130" height="60" as="geometry" />
        </mxCell>
        <mxCell id="CKRff9_2Nqjq3r9Cj2ci-18" value="3.3" style="swimlane;whiteSpace=wrap;html=1;" vertex="1" parent="1">
          <mxGeometry x="-90" y="350" width="130" height="80" as="geometry" />
        </mxCell>
        <mxCell id="CKRff9_2Nqjq3r9Cj2ci-19" value="Summary of custom order" style="rounded=0;whiteSpace=wrap;html=1;" vertex="1" parent="CKRff9_2Nqjq3r9Cj2ci-18">
          <mxGeometry y="20" width="130" height="60" as="geometry" />
        </mxCell>
        <mxCell id="CKRff9_2Nqjq3r9Cj2ci-22" value="" style="endArrow=classic;html=1;rounded=0;entryX=0;entryY=0.5;entryDx=0;entryDy=0;exitX=0.5;exitY=0;exitDx=0;exitDy=0;" edge="1" parent="1" source="CKRff9_2Nqjq3r9Cj2ci-2">
          <mxGeometry width="50" height="50" relative="1" as="geometry">
            <mxPoint x="-690" y="361" as="sourcePoint" />
            <mxPoint x="-410" y="286" as="targetPoint" />
            <Array as="points">
              <mxPoint x="-590" y="286" />
            </Array>
          </mxGeometry>
        </mxCell>
        <mxCell id="CKRff9_2Nqjq3r9Cj2ci-35" value="" style="endArrow=classic;html=1;rounded=0;entryX=0.25;entryY=0;entryDx=0;entryDy=0;exitX=1;exitY=0.25;exitDx=0;exitDy=0;" edge="1" parent="1" target="CKRff9_2Nqjq3r9Cj2ci-18">
          <mxGeometry width="50" height="50" relative="1" as="geometry">
            <mxPoint x="-280" y="280" as="sourcePoint" />
            <mxPoint x="-90" y="280" as="targetPoint" />
            <Array as="points">
              <mxPoint x="-57" y="280" />
            </Array>
          </mxGeometry>
        </mxCell>
        <mxCell id="CKRff9_2Nqjq3r9Cj2ci-37" value="" style="endArrow=classic;html=1;rounded=0;entryX=0.317;entryY=0.011;entryDx=0;entryDy=0;entryPerimeter=0;" edge="1" parent="1" target="CKRff9_2Nqjq3r9Cj2ci-12">
          <mxGeometry width="50" height="50" relative="1" as="geometry">
            <mxPoint x="11" y="430" as="sourcePoint" />
            <mxPoint x="-60" y="540" as="targetPoint" />
          </mxGeometry>
        </mxCell>
        <mxCell id="CKRff9_2Nqjq3r9Cj2ci-42" value="5.1" style="swimlane;whiteSpace=wrap;html=1;" vertex="1" parent="1">
          <mxGeometry x="-30" y="760" width="130" height="80" as="geometry" />
        </mxCell>
        <mxCell id="CKRff9_2Nqjq3r9Cj2ci-43" value="Payment" style="rounded=0;whiteSpace=wrap;html=1;" vertex="1" parent="CKRff9_2Nqjq3r9Cj2ci-42">
          <mxGeometry y="20" width="130" height="60" as="geometry" />
        </mxCell>
        <mxCell id="CKRff9_2Nqjq3r9Cj2ci-44" value="order_id&lt;div&gt;orderDts_id&lt;/div&gt;&lt;div&gt;user_id&lt;/div&gt;&lt;div&gt;payment_id&lt;/div&gt;" style="text;html=1;align=left;verticalAlign=middle;whiteSpace=wrap;rounded=0;" vertex="1" parent="1">
          <mxGeometry x="400" y="470" width="100" height="90" as="geometry" />
        </mxCell>
        <mxCell id="CKRff9_2Nqjq3r9Cj2ci-45" value="" style="endArrow=classic;html=1;rounded=0;entryX=0;entryY=0.5;entryDx=0;entryDy=0;" edge="1" parent="1">
          <mxGeometry width="50" height="50" relative="1" as="geometry">
            <mxPoint x="40" y="390" as="sourcePoint" />
            <mxPoint x="320" y="390" as="targetPoint" />
          </mxGeometry>
        </mxCell>
        <mxCell id="CKRff9_2Nqjq3r9Cj2ci-53" value="" style="endArrow=classic;html=1;rounded=0;exitX=0.25;exitY=1;exitDx=0;exitDy=0;" edge="1" parent="1" source="CKRff9_2Nqjq3r9Cj2ci-2">
          <mxGeometry width="50" height="50" relative="1" as="geometry">
            <mxPoint x="-100" y="590" as="sourcePoint" />
            <mxPoint x="-30" y="810" as="targetPoint" />
            <Array as="points">
              <mxPoint x="-620" y="810" />
            </Array>
          </mxGeometry>
        </mxCell>
        <mxCell id="CKRff9_2Nqjq3r9Cj2ci-54" value="" style="endArrow=classic;html=1;rounded=0;exitX=0.5;exitY=1;exitDx=0;exitDy=0;entryX=0.5;entryY=0;entryDx=0;entryDy=0;" edge="1" parent="1" source="CKRff9_2Nqjq3r9Cj2ci-13" target="CKRff9_2Nqjq3r9Cj2ci-42">
          <mxGeometry width="50" height="50" relative="1" as="geometry">
            <mxPoint x="70" y="690" as="sourcePoint" />
            <mxPoint x="120" y="640" as="targetPoint" />
          </mxGeometry>
        </mxCell>
        <mxCell id="CKRff9_2Nqjq3r9Cj2ci-56" value="payment_ref_id" style="text;html=1;align=center;verticalAlign=middle;whiteSpace=wrap;rounded=0;" vertex="1" parent="1">
          <mxGeometry x="-410" y="770" width="60" height="30" as="geometry" />
        </mxCell>
        <mxCell id="CKRff9_2Nqjq3r9Cj2ci-57" value="" style="endArrow=classic;html=1;rounded=0;exitX=1;exitY=0.5;exitDx=0;exitDy=0;entryX=0.551;entryY=1.073;entryDx=0;entryDy=0;entryPerimeter=0;" edge="1" parent="1" source="CKRff9_2Nqjq3r9Cj2ci-13">
          <mxGeometry width="50" height="50" relative="1" as="geometry">
            <mxPoint x="100" y="730" as="sourcePoint" />
            <mxPoint x="397.1400000000003" y="407.19000000000005" as="targetPoint" />
            <Array as="points">
              <mxPoint x="397" y="630" />
            </Array>
          </mxGeometry>
        </mxCell>
        <mxCell id="CKRff9_2Nqjq3r9Cj2ci-59" value="client_id&lt;div&gt;order_payment&lt;/div&gt;&lt;div&gt;order_ref_id&lt;/div&gt;" style="text;html=1;align=left;verticalAlign=middle;whiteSpace=wrap;rounded=0;" vertex="1" parent="1">
          <mxGeometry x="50" y="670" width="100" height="90" as="geometry" />
        </mxCell>
        <mxCell id="CKRff9_2Nqjq3r9Cj2ci-60" value="TBL Orders" style="html=1;dashed=0;whiteSpace=wrap;shape=mxgraph.dfd.dataStoreID;align=left;spacingLeft=3;points=[[0,0],[0.5,0],[1,0],[0,0.5],[1,0.5],[0,1],[0.5,1],[1,1]];" vertex="1" parent="1">
          <mxGeometry x="320" y="375" width="140" height="30" as="geometry" />
        </mxCell>
        <mxCell id="CKRff9_2Nqjq3r9Cj2ci-62" value="orderDts_id&lt;div&gt;order_date&lt;/div&gt;" style="text;html=1;align=left;verticalAlign=middle;whiteSpace=wrap;rounded=0;" vertex="1" parent="1">
          <mxGeometry x="150" y="330" width="100" height="90" as="geometry" />
        </mxCell>
        <mxCell id="CKRff9_2Nqjq3r9Cj2ci-63" value="TBL&lt;span style=&quot;white-space: pre;&quot;&gt;&#x9;&lt;/span&gt;Payment" style="html=1;dashed=0;whiteSpace=wrap;shape=mxgraph.dfd.dataStoreID;align=left;spacingLeft=3;points=[[0,0],[0.5,0],[1,0],[0,0.5],[1,0.5],[0,1],[0.5,1],[1,1]];" vertex="1" parent="1">
          <mxGeometry x="280" y="795" width="140" height="30" as="geometry" />
        </mxCell>
        <mxCell id="CKRff9_2Nqjq3r9Cj2ci-64" value="" style="endArrow=classic;html=1;rounded=0;exitX=1;exitY=0.5;exitDx=0;exitDy=0;entryX=0;entryY=0.5;entryDx=0;entryDy=0;" edge="1" parent="1" source="CKRff9_2Nqjq3r9Cj2ci-43" target="CKRff9_2Nqjq3r9Cj2ci-63">
          <mxGeometry width="50" height="50" relative="1" as="geometry">
            <mxPoint x="100" y="860" as="sourcePoint" />
            <mxPoint x="150" y="810" as="targetPoint" />
          </mxGeometry>
        </mxCell>
        <mxCell id="CKRff9_2Nqjq3r9Cj2ci-65" value="payment_id&lt;div&gt;mode&lt;/div&gt;&lt;div&gt;amount&lt;/div&gt;&lt;div&gt;date_paid&lt;/div&gt;" style="text;html=1;align=left;verticalAlign=middle;whiteSpace=wrap;rounded=0;" vertex="1" parent="1">
          <mxGeometry x="160" y="800" width="100" height="90" as="geometry" />
        </mxCell>
        <mxCell id="CKRff9_2Nqjq3r9Cj2ci-67" value="3.1" style="swimlane;whiteSpace=wrap;html=1;startSize=23;" vertex="1" parent="1">
          <mxGeometry x="-410" y="235" width="130" height="80" as="geometry" />
        </mxCell>
        <mxCell id="CKRff9_2Nqjq3r9Cj2ci-68" value="Choose Order Details" style="rounded=0;whiteSpace=wrap;html=1;" vertex="1" parent="CKRff9_2Nqjq3r9Cj2ci-67">
          <mxGeometry y="20" width="130" height="60" as="geometry" />
        </mxCell>
        <mxCell id="CKRff9_2Nqjq3r9Cj2ci-69" value="&lt;div&gt;&lt;span style=&quot;background-color: transparent; color: light-dark(rgb(0, 0, 0), rgb(255, 255, 255));&quot;&gt;color_style&lt;/span&gt;&lt;/div&gt;&lt;div&gt;comm_type&lt;/div&gt;" style="text;html=1;align=left;verticalAlign=middle;whiteSpace=wrap;rounded=0;" vertex="1" parent="1">
          <mxGeometry x="-525" y="220" width="100" height="90" as="geometry" />
        </mxCell>
        <mxCell id="CKRff9_2Nqjq3r9Cj2ci-71" value="3.2" style="swimlane;whiteSpace=wrap;html=1;startSize=23;" vertex="1" parent="1">
          <mxGeometry x="-410" y="455" width="130" height="80" as="geometry" />
        </mxCell>
        <mxCell id="CKRff9_2Nqjq3r9Cj2ci-72" value="Quantity" style="rounded=0;whiteSpace=wrap;html=1;" vertex="1" parent="CKRff9_2Nqjq3r9Cj2ci-71">
          <mxGeometry y="20" width="130" height="60" as="geometry" />
        </mxCell>
        <mxCell id="CKRff9_2Nqjq3r9Cj2ci-73" value="" style="endArrow=classic;html=1;rounded=0;entryX=0;entryY=0.5;entryDx=0;entryDy=0;exitX=0.5;exitY=1;exitDx=0;exitDy=0;" edge="1" parent="1" source="CKRff9_2Nqjq3r9Cj2ci-2" target="CKRff9_2Nqjq3r9Cj2ci-72">
          <mxGeometry width="50" height="50" relative="1" as="geometry">
            <mxPoint x="-460" y="540" as="sourcePoint" />
            <mxPoint x="-410" y="490" as="targetPoint" />
            <Array as="points">
              <mxPoint x="-590" y="505" />
            </Array>
          </mxGeometry>
        </mxCell>
        <mxCell id="CKRff9_2Nqjq3r9Cj2ci-74" value="" style="endArrow=classic;html=1;rounded=0;exitX=1;exitY=0.5;exitDx=0;exitDy=0;entryX=0.25;entryY=1;entryDx=0;entryDy=0;" edge="1" parent="1" source="CKRff9_2Nqjq3r9Cj2ci-72" target="CKRff9_2Nqjq3r9Cj2ci-19">
          <mxGeometry width="50" height="50" relative="1" as="geometry">
            <mxPoint x="-280" y="490" as="sourcePoint" />
            <mxPoint x="-230" y="440" as="targetPoint" />
            <Array as="points">
              <mxPoint x="-57" y="505" />
            </Array>
          </mxGeometry>
        </mxCell>
        <mxCell id="CKRff9_2Nqjq3r9Cj2ci-75" value="&lt;div&gt;quantity&lt;/div&gt;" style="text;html=1;align=left;verticalAlign=middle;whiteSpace=wrap;rounded=0;" vertex="1" parent="1">
          <mxGeometry x="-240" y="450" width="100" height="90" as="geometry" />
        </mxCell>
        <mxCell id="CKRff9_2Nqjq3r9Cj2ci-76" value="&lt;div&gt;orderDts_id&lt;/div&gt;" style="text;html=1;align=left;verticalAlign=middle;whiteSpace=wrap;rounded=0;" vertex="1" parent="1">
          <mxGeometry x="-210" y="220" width="100" height="90" as="geometry" />
        </mxCell>
      </root>
    </mxGraphModel>
  </diagram>
</mxfile>
